<?xml version="1.0" encoding="UTF-8" standalone="no"?>
<svg
   xmlns:dc="http://purl.org/dc/elements/1.1/"
   xmlns:cc="http://creativecommons.org/ns#"
   xmlns:rdf="http://www.w3.org/1999/02/22-rdf-syntax-ns#"
   xmlns:svg="http://www.w3.org/2000/svg"
   xmlns="http://www.w3.org/2000/svg"
   xmlns:sodipodi="http://sodipodi.sourceforge.net/DTD/sodipodi-0.dtd"
   xmlns:inkscape="http://www.inkscape.org/namespaces/inkscape"
   version="1.1"
   id="svg94"
   width="114.75778"
   height="158.8204"
   viewBox="0 0 114.75778 158.8204"
   sodipodi:docname="boot.svg"
   inkscape:version="1.0.1 (c497b03c, 2020-09-10)">
  <metadata
     id="metadata100">
    <rdf:RDF>
      <cc:Work
         rdf:about="">
        <dc:format>image/svg+xml</dc:format>
        <dc:type
           rdf:resource="http://purl.org/dc/dcmitype/StillImage" />
        <dc:title></dc:title>
      </cc:Work>
    </rdf:RDF>
  </metadata>
  <defs
     id="defs98" />
  <sodipodi:namedview
     pagecolor="#ffffff"
     bordercolor="#666666"
     borderopacity="1"
     objecttolerance="10"
     gridtolerance="10"
     guidetolerance="10"
     inkscape:pageopacity="0"
     inkscape:pageshadow="2"
     inkscape:window-width="1073"
     inkscape:window-height="993"
     id="namedview96"
     showgrid="false"
     inkscape:zoom="4.6445652"
     inkscape:cx="57.378891"
     inkscape:cy="79.410202"
     inkscape:window-x="0"
     inkscape:window-y="25"
     inkscape:window-maximized="0"
     inkscape:current-layer="layer1" />
  <g
     inkscape:groupmode="layer"
     id="layer1"
     inkscape:label="trace"
     transform="translate(-27.524479,-0.72512459)">
    <path
       style="fill:none;stroke:#000000;stroke-width:1px;stroke-linecap:butt;stroke-linejoin:miter;stroke-opacity:1"
       d="m 91.053061,0 -0.919728,10.117007 0.459864,9.887075 -3.219047,9.197279 0.919728,4.138775 -3.678912,2.759184 2.529252,8.507483 -4.138776,12.87619 1.379592,8.277551 1.379592,5.518368 v 4.828571 l -4.59864,4.828571 -7.357823,7.357824 -7.817687,4.828571 L 52.654422,87.37415 40.927891,84.614966 33.8,85.994558 l -4.368707,5.288435 -2.529252,11.496597 0.919728,11.03674 4.598639,8.96734 1.839456,4.13878 11.726531,6.20816 12.87619,4.13878 10.117007,2.52925 3.219047,0.91973 -0.229932,6.20816 28.051703,11.26667 9.65714,2.06939 11.26667,-0.91973 5.97823,-2.98912 -0.91973,-9.88707 2.52925,-5.28844 0.6898,-9.19728 -2.29932,-17.93469 -1.60952,-15.865308 0.68979,-10.806802 2.29932,-11.726531 4.59864,-3.908843 0.6898,-4.59864 1.83945,-13.336054 1.37959,-17.934694 3.44898,-7.587755 v -5.7483 -6.668027 l 2.75919,-8.0476189 -0.22993,-6.6680272 z"
       id="path109" />
    <g
       id="g940">
      <path
         d="m 104.57347,158.54413 c -4.46259,-0.98351 -4.548,-1.01406 -18.164626,-6.49757 l -13.680953,-5.50941 0.06708,-3.12673 0.06708,-3.12673 -1.561638,-0.46062 c -0.858902,-0.25334 -4.044904,-1.08597 -7.080006,-1.85029 -3.035102,-0.76431 -8.312041,-2.29765 -11.72653,-3.40741 -6.037696,-1.96234 -6.366833,-2.10135 -11.98665,-5.06263 l -5.778486,-3.04489 -0.507001,-1.20478 c -0.278851,-0.66262 -1.694875,-3.56674 -3.146721,-6.4536 l -2.639718,-5.24882 -0.455411,-5.33762 -0.455411,-5.33762 1.236293,-5.636882 1.236293,-5.636881 2.089183,-2.522405 2.089182,-2.522404 3.343889,-0.65197 3.34389,-0.651972 5.700368,1.327138 c 5.697349,1.326431 5.704001,1.328698 12.556491,4.27939 5.956553,2.564898 6.921948,2.917181 7.357823,2.684939 0.275934,-0.147023 2.226958,-1.337588 4.335604,-2.645699 l 3.833904,-2.378384 5.879572,-6.033951 5.87957,-6.033948 0.0011,-2.600183 c 9.19e-4,-2.119725 -0.12404,-3.09692 -0.676357,-5.288436 -0.372628,-1.478538 -0.993368,-4.566132 -1.379424,-6.861319 l -0.70192,-4.173066 2.078741,-6.464206 2.078742,-6.464204 -1.159182,-3.871215 c -0.637548,-2.129168 -1.156284,-4.016171 -1.152745,-4.193341 0.0035,-0.177169 0.779561,-0.88558 1.72449,-1.57425 0.94493,-0.688667 1.718056,-1.336447 1.718056,-1.43951 0,-0.10306 -0.205801,-1.111311 -0.457337,-2.240558 l -0.457337,-2.053175 1.605045,-4.554936 1.605044,-4.554934 -0.247885,-4.828572 c -0.213342,-4.155753 -0.19059,-5.4968644 0.163287,-9.6246682 0.312054,-3.6400049 0.489635,-4.8262081 0.736695,-4.92101372 0.179039,-0.0687041 8.047715,0.0484194 17.485946,0.26027452 9.43823,0.2118551 20.16103,0.4388327 23.82845,0.5043948 3.66741,0.065562 7.21124,0.1740764 7.87517,0.2411431 l 1.20714,0.1219394 v 3.0548006 3.0548006 l -1.26463,3.7237699 -1.26462,3.723771 v 6.200892 6.200892 l -1.75635,3.846509 -1.75636,3.846509 -0.76004,9.542177 c -0.67246,8.442428 -1.29845,13.767011 -2.87896,24.487755 l -0.27118,1.839456 -2.17935,1.839455 c -1.19865,1.011701 -2.26828,2.046395 -2.37696,2.29932 -0.10868,0.252925 -0.70712,3.098333 -1.32988,6.323129 -1.01181,5.239421 -1.1634,6.440972 -1.42472,11.292898 l -0.29243,5.429632 0.74156,7.331588 c 0.40786,4.03238 1.27025,11.47037 1.91643,16.52888 l 1.17488,9.19727 -0.28875,4.59864 -0.28874,4.59864 -1.24247,2.62036 c -1.41437,2.98291 -1.41237,2.96514 -0.89554,7.95651 0.52151,5.03654 0.77717,4.39058 -2.35883,5.95975 l -2.7017,1.35185 -4.82857,0.41828 c -2.65571,0.23006 -5.29418,0.41242 -5.86327,0.40525 -0.56908,-0.007 -3.05234,-0.45772 -5.51836,-1.0012 z"
         style="stroke-width:0.229932"
         id="path938" />
    </g>
  </g>
</svg>
